<?xml version="1.0" encoding="utf-8"?>
<!-- Generator: Adobe Illustrator 21.0.2, SVG Export Plug-In . SVG Version: 6.00 Build 0)  -->
<svg version="1.1" id="Layer_1" xmlns="http://www.w3.org/2000/svg" xmlns:xlink="http://www.w3.org/1999/xlink" x="0px" y="0px"
	 viewBox="0 0 256 256" style="enable-background:new 0 0 256 256;" xml:space="preserve">
<style type="text/css">
	.st0{fill:#FFFFFF;}
</style>
<path class="st0" d="M150,191.1c-1.6,0-3.3-0.6-4.5-1.9l-56.7-56.7c-2.5-2.5-2.5-6.6,0-9.1l56.7-56.7c2.5-2.5,6.6-2.5,9,0
	c2.5,2.5,2.5,6.6,0,9.1L102.3,128l52.2,52.2c2.5,2.5,2.5,6.6,0,9.1C153.2,190.5,151.6,191.1,150,191.1z M256,128
	C256,57.4,198.6,0,128,0S0,57.4,0,128s57.4,128,128,128S256,198.6,256,128z M243.2,128c0,63.5-51.7,115.2-115.2,115.2
	c-63.5,0-115.2-51.7-115.2-115.2C12.8,64.5,64.5,12.8,128,12.8C191.5,12.8,243.2,64.5,243.2,128z"/>
</svg>
