<?xml version="1.0" encoding="utf-8"?>
<!-- Generator: Adobe Illustrator 21.0.2, SVG Export Plug-In . SVG Version: 6.00 Build 0)  -->
<svg version="1.1" id="Layer_1" xmlns="http://www.w3.org/2000/svg" xmlns:xlink="http://www.w3.org/1999/xlink" x="0px" y="0px"
	 viewBox="0 0 469.6 422.1" style="enable-background:new 0 0 469.6 422.1;" xml:space="preserve">
<style type="text/css">
	.st0{fill:#111111;}
	.st1{fill:#111111;stroke:#111111;stroke-miterlimit:10;}
	.st2{fill:#111111;stroke:#223761;stroke-width:2;stroke-miterlimit:10;}
	.st3{fill:none;stroke:#223761;stroke-width:10;stroke-miterlimit:10;}
	.st4{fill:#FFFFFF;stroke:#223761;stroke-width:10;stroke-miterlimit:10;}
	.st5{fill:#111111;stroke:#223761;stroke-width:10;stroke-miterlimit:10;}
	.st6{fill:none;stroke:#223761;stroke-width:2;stroke-miterlimit:10;}
</style>
<g>
	<g>
		<g>
			<g>
				<ellipse class="st0" cx="134.3" cy="258.5" rx="22.7" ry="5.7"/>
			</g>
			<g>
				<rect x="124.9" y="254.5" class="st0" width="19.2" height="88.6"/>
			</g>
			<g>
				<polyline class="st0" points="125.5,315.6 143.4,315.6 143.4,320.2 138.7,325.8 130.1,325.8 125.5,320.2 				"/>
			</g>
			<g>
				<path class="st0" d="M101.7,154.2c1.6-4.8,4.2-9.2,7.8-12.8c6-6.1,14.1-9.8,22.8-9.8h3.7c8.6,0,16.5,3.7,22.7,9.7
					c3.2,3.2,5.6,7.1,7.2,11.3c2.1,0.6,4.1,1.2,6.2,2c-4.3-15.7-18.7-27.2-35.8-27.2h-3.8c-17.6,0-32.5,12.3-36.3,28.8
					C97.9,155.6,99.8,154.9,101.7,154.2z"/>
				<path class="st0" d="M168.2,181.5v58c0,8.6-3.3,17-9.4,23.1c-6,6.1-14.1,9.8-22.7,9.8h-3.7c-8.6,0-16.6-3.7-22.7-9.8
					c-6-6-9.4-14.6-9.4-23.1v-55.4c-2.1-0.9-3.4-1.9-4.8-3V240c0,20.5,16.5,37.2,37.1,37.2h3.9c20.5,0,37.4-16.7,37.4-37.2v-62.1
					C171.6,179.1,170.2,180.3,168.2,181.5z"/>
			</g>
			<g>
				<g>
					<path class="st1" d="M136.4,174.1l-3.7-0.8c1.1-5,3.4-8.4,7-10c6.5-3.1,15.3,0.3,23,3.8c5.2,2.3,10,1.7,13.5-1.9
						c4.8-4.9,5.8-13.7,2.2-19.8l3.3-1.8c2.2,3.7,3.1,8.2,2.5,12.7c-0.5,4.4-2.4,8.4-5.2,11.3c-4.6,4.7-11.2,5.6-17.9,2.6
						c-7.4-3.3-14.9-6.1-19.7-3.8C138.8,167.7,137.2,170.2,136.4,174.1z"/>
				</g>
				<g>
					<path class="st1" d="M132.6,174.1c-0.9-3.9-2.5-6.4-4.9-7.6c-4.8-2.3-12.3,0.5-19.7,3.8c-2.6,1.2-5.1,1.7-7.6,1.7
						c-3.9,0-7.5-1.4-10.3-4.4c-2.8-2.9-4.7-6.9-5.2-11.3c-0.5-4.5,0.3-9.1,2.5-12.7l3.3,1.8c-3.6,6-2.6,14.9,2.2,19.8
						c3.5,3.5,8.2,4.2,13.5,1.9c7.7-3.4,16.5-6.9,23-3.8c3.6,1.6,5.9,5,7,10L132.6,174.1z"/>
				</g>
			</g>
			<g>
				<polygon class="st0" points="135.6,174.5 131.3,174.5 131.9,171.1 132.8,169.9 				"/>
			</g>
		</g>
		<path class="st0" d="M144.2,100.7c-9.7-3.6-10.4-14.2-10.4-15.7v0.1c0,1.4-0.2,11.9-9.9,15.5c-10.3,3.8-6.6,12.8,0.3,13.3v10.6
			c0,0-0.1,0-0.1-0.1c9.5-4.4,18.7-0.6,20-0.1c0.1,0.1,0,0.1,0,0.1v-10.5C151,113.4,154.6,104.5,144.2,100.7z"/>
	</g>
	<g>
		<g>
			<path class="st0" d="M241.6,230.1h-15v-56h-13v56h-14.9V127.6h14.9v33.9h13v-33.9h15V230.1z"/>
			<path class="st0" d="M279.4,230.1v-22.8h-12.6v22.8h-14.5v-82.2c0-4.8,0.3-8.5,0.8-11.4c0.6-2.8,1.6-5,3.2-6.5
				c1.6-1.5,3.7-2.5,6.4-3c2.7-0.5,6.2-0.7,10.4-0.7c4.2,0,7.7,0.3,10.4,0.8c2.7,0.5,4.9,1.6,6.5,3.1c1.6,1.6,2.7,3.7,3.3,6.6
				c0.6,2.8,0.9,6.5,0.9,11.1v82.2L279.4,230.1L279.4,230.1z M273,139.7c-1.3,0-2.4,0.1-3.2,0.3c-0.8,0.2-1.5,0.6-1.9,1.2
				c-0.5,0.6-0.8,1.4-0.9,2.5s-0.2,2.5-0.2,4.2v47.2h12.6v-47.2c0-1.7-0.1-3.1-0.3-4.2c-0.2-1.1-0.5-1.9-0.9-2.5s-1.1-1-1.9-1.2
				C275.4,139.8,274.3,139.7,273,139.7z"/>
			<path class="st0" d="M331.5,171.1v-23.2c0-1.7-0.1-3.1-0.2-4.2c-0.1-1.1-0.4-1.9-0.9-2.5s-1.1-1-1.9-1.2s-1.9-0.3-3.2-0.3
				c-1.4,0-2.5,0.1-3.3,0.3s-1.5,0.6-1.9,1.2c-0.5,0.6-0.8,1.4-0.9,2.5s-0.2,2.4-0.2,4.1v61.9c0,1.8,0.1,3.3,0.2,4.3
				c0.1,1.1,0.4,1.9,0.9,2.5s1.1,1,1.9,1.2s1.9,0.3,3.3,0.3c1.3,0,2.4-0.1,3.2-0.3c0.8-0.2,1.5-0.6,1.9-1.2c0.5-0.6,0.8-1.4,0.9-2.5
				s0.2-2.5,0.2-4.3V186h14.4v23.7c0,4.8-0.3,8.6-0.8,11.4c-0.6,2.9-1.6,5-3.2,6.6c-1.6,1.5-3.7,2.5-6.4,3
				c-2.7,0.5-6.1,0.7-10.2,0.7c-4.4,0-8-0.2-10.8-0.7s-4.9-1.5-6.5-3s-2.6-3.7-3.2-6.6c-0.6-2.9-0.8-6.7-0.8-11.4v-61.9
				c0-4.7,0.3-8.4,0.9-11.3c0.6-2.9,1.7-5,3.3-6.6c1.6-1.5,3.8-2.5,6.6-3c2.8-0.5,6.3-0.7,10.5-0.7s7.6,0.2,10.2,0.7
				c2.7,0.5,4.8,1.5,6.4,3s2.6,3.7,3.2,6.5s0.8,6.6,0.8,11.4V171h-14.4V171.1z"/>
			<path class="st0" d="M400.3,127.6L385,170.2l17.4,59.9h-16.2L372,176.3h-0.6v53.8h-15V127.8h15v38.7h0.6l12.6-38.8L400.3,127.6
				L400.3,127.6z"/>
		</g>
		<g>
			<path class="st0" d="M213.6,345.6h-14.9V243.2H220c4.4,0,8,0.2,10.8,0.7s4.9,1.5,6.6,3c1.6,1.5,2.7,3.6,3.2,6.4
				c0.6,2.7,0.8,6.3,0.8,10.8v10.8c0,2.7-0.3,4.9-0.8,6.6c-0.6,1.7-1.3,3-2.2,4.1c-0.9,1-1.9,1.8-3,2.3s-2.1,0.8-3.2,1.1v0.5
				c1.4,0.3,2.6,0.8,3.8,1.4c1.1,0.6,2.1,1.4,2.9,2.6c0.8,1.2,1.4,2.7,1.9,4.5c0.4,1.8,0.6,4.2,0.6,7v40.9h-15v-43.2
				c0-2.8-0.3-4.7-1-5.8c-0.7-1.1-2.3-1.6-4.9-1.6h-6.7v50.3H213.6z M213.6,283.2h6.7c2.4,0,4-0.5,4.8-1.4c0.8-1,1.2-2.7,1.2-5.2
				V264c0-1.6-0.1-3-0.2-4c-0.1-1-0.4-1.8-0.8-2.4c-0.4-0.6-1.1-1-1.9-1.2c-0.9-0.2-2-0.3-3.4-0.3h-6.4L213.6,283.2L213.6,283.2z"/>
			<path class="st0" d="M267.2,345.6h-14.9V243.2h14.9V345.6z"/>
			<path class="st0" d="M321.7,324.6c0,4.6-0.3,8.3-0.8,11c-0.6,2.8-1.6,4.9-3.2,6.4s-3.8,2.4-6.6,2.9c-2.8,0.5-6.4,0.7-10.8,0.7
				H279V243.2h21.3c4.4,0,8,0.2,10.8,0.7s4.9,1.4,6.6,2.9c1.6,1.5,2.7,3.6,3.2,6.3c0.6,2.7,0.8,6.4,0.8,11L321.7,324.6L321.7,324.6z
				 M306.6,264c0-1.6-0.1-3-0.3-4c-0.2-1-0.5-1.9-0.9-2.5s-1.1-1-1.9-1.2s-1.9-0.3-3.3-0.3h-6.4v76.7h6.4c1.4,0,2.5-0.1,3.3-0.3
				c0.8-0.2,1.4-0.6,1.9-1.2c0.4-0.6,0.7-1.4,0.9-2.5c0.2-1.1,0.3-2.5,0.3-4.2V264z"/>
			<path class="st0" d="M358.5,272.7v-9.3c0-1.7-0.1-3.1-0.2-4.2s-0.4-1.9-0.9-2.5s-1.1-1-1.9-1.2s-1.9-0.3-3.2-0.3
				c-1.4,0-2.5,0.1-3.3,0.3s-1.5,0.6-1.9,1.2c-0.5,0.6-0.8,1.4-0.9,2.5s-0.2,2.4-0.2,4.1v61.9c0,1.7,0.1,3.1,0.2,4.2
				s0.4,1.9,0.9,2.5s1.1,1,1.9,1.3s1.9,0.4,3.3,0.4c1.7,0,3.1,0,4.2-0.1s1.9-0.2,2.4-0.4V286h14v59.5c-1.2,0.3-3.5,0.5-6.9,0.8
				s-8,0.5-13.7,0.5c-4.4,0-8-0.3-10.8-0.8c-2.8-0.6-4.9-1.6-6.5-3.2s-2.6-3.8-3.2-6.6c-0.6-2.8-0.8-6.5-0.8-11v-61.9
				c0-4.7,0.3-8.4,0.9-11.3c0.6-2.9,1.7-5,3.3-6.6c1.6-1.5,3.8-2.5,6.6-3c2.8-0.5,6.3-0.7,10.5-0.7s7.6,0.2,10.2,0.7
				c2.7,0.5,4.8,1.5,6.4,3s2.6,3.7,3.2,6.5s0.8,6.6,0.8,11.3v9.3h-14.4V272.7z"/>
			<path class="st0" d="M413.1,345.6h-29.3V243.2H413v12.3h-14.3v14.9h13.9v11.8h-13.9v50.6h14.4V345.6z"/>
		</g>
	</g>
</g>
<path class="st2" d="M113.2,164.6"/>
<rect x="114.6" y="291.6" class="st0" width="39.8" height="10.3"/>
<path class="st0" d="M143.9,311.5h-18.4c-4,0-7.3-3.3-7.3-7.3V300c0-4,3.3-7.3,7.3-7.3h18.4c4,0,7.3,3.3,7.3,7.3v4.2
	C151.1,308.2,147.9,311.5,143.9,311.5z"/>
<path class="st3" d="M-1.1,136.2"/>
<path class="st3" d="M-69,249.5"/>
<path class="st3" d="M233.5,429"/>
<path class="st3" d="M536,249.5"/>
<path class="st4" d="M233.5,70"/>
<path class="st5" d="M130.4,164"/>
<path class="st6" d="M48.5,134"/>
<g>
	<path class="st0" d="M128.2,236.3c-5.4-1.6-10.2-5.3-13.2-10.6c-5.8-10.7-1.8-24.2,8.9-30c1.1-0.6,2.4-0.2,3,0.9s0.2,2.4-0.9,3
		c-8.6,4.7-11.8,15.4-7.1,24c4.7,8.6,15.4,11.8,24,7.1c8.6-4.7,11.8-15.4,7.1-24c-0.6-1.1-0.2-2.4,0.9-3c1.1-0.6,2.4-0.2,3,0.9
		c5.8,10.7,1.8,24.2-8.9,30C139.7,237.4,133.7,237.9,128.2,236.3z"/>
	<path class="st0" d="M137.3,213.6c-0.3,1.2-1.6,1.8-2.7,1.5l0,0c-1.2-0.3-1.8-1.6-1.5-2.7l6.3-21.2c0.3-1.2,1.6-1.8,2.7-1.5l0,0
		c1.2,0.3,1.8,1.6,1.5,2.7L137.3,213.6z"/>
</g>
</svg>
