<?xml version="1.0" encoding="utf-8"?>
<!-- Generator: Adobe Illustrator 21.0.2, SVG Export Plug-In . SVG Version: 6.00 Build 0)  -->
<svg version="1.1" id="Layer_1" xmlns="http://www.w3.org/2000/svg" xmlns:xlink="http://www.w3.org/1999/xlink" x="0px" y="0px"
	 viewBox="0 0 331.3 271" style="enable-background:new 0 0 331.3 271;" xml:space="preserve">
<style type="text/css">
	.st0{fill:#FFFFFF;}
	.st1{fill:#FFFFFF;stroke:#FFFFFF;stroke-miterlimit:10;}
	.st2{fill:#FFFFFF;stroke:#223761;stroke-width:2;stroke-miterlimit:10;}
	.st3{fill:none;stroke:#223761;stroke-width:10;stroke-miterlimit:10;}
	.st4{fill:#FFFFFF;stroke:#223761;stroke-width:10;stroke-miterlimit:10;}
	.st5{fill:none;stroke:#223761;stroke-width:2;stroke-miterlimit:10;}
</style>
<g>
	<g>
		<g>
			<g>
				<ellipse class="st0" cx="52.5" cy="175.5" rx="22.7" ry="5.7"/>
			</g>
			<g>
				<rect x="43.1" y="171.5" class="st0" width="19.2" height="88.6"/>
			</g>
			<g>
				<polyline class="st0" points="43.7,232.6 61.6,232.6 61.6,237.2 56.9,242.8 48.3,242.8 43.7,237.2 				"/>
			</g>
			<g>
				<path class="st0" d="M19.9,71.2c1.6-4.8,4.2-9.2,7.8-12.8c6-6.1,14.1-9.8,22.8-9.8h3.7c8.6,0,16.5,3.7,22.7,9.7
					c3.2,3.2,5.6,7.1,7.2,11.3c2.1,0.6,4.1,1.2,6.2,2C86,55.9,71.6,44.4,54.5,44.4h-3.8c-17.6,0-32.5,12.3-36.3,28.8
					C16.1,72.6,18,71.9,19.9,71.2z"/>
				<path class="st0" d="M86.4,98.5v58c0,8.6-3.3,17-9.4,23.1c-6,6.1-14.1,9.8-22.7,9.8h-3.7c-8.6,0-16.6-3.7-22.7-9.8
					c-6-6-9.4-14.6-9.4-23.1v-55.4c-2.1-0.9-3.4-1.9-4.8-3V157c0,20.5,16.5,37.2,37.1,37.2h3.9c20.5,0,37.4-16.7,37.4-37.2V94.9
					C89.8,96.1,88.4,97.3,86.4,98.5z"/>
			</g>
			<g>
				<g>
					<path class="st1" d="M53.6,91.1l-3.7-0.8c1.1-5,3.4-8.4,7-10c6.5-3.1,15.3,0.3,23,3.8c5.2,2.3,10,1.7,13.5-1.9
						c4.8-4.9,5.8-13.7,2.2-19.8l3.3-1.8c2.2,3.7,3.1,8.2,2.5,12.7c-0.5,4.4-2.4,8.4-5.2,11.3c-4.6,4.7-11.2,5.6-17.9,2.6
						c-7.4-3.3-14.9-6.1-19.7-3.8C56,84.7,54.4,87.2,53.6,91.1z"/>
				</g>
				<g>
					<path class="st1" d="M49.8,91.1c-0.9-3.9-2.5-6.4-4.9-7.6c-4.8-2.3-12.3,0.5-19.7,3.8c-2.6,1.2-5.1,1.7-7.6,1.7
						c-3.9,0-7.5-1.4-10.3-4.4c-2.8-2.9-4.7-6.9-5.2-11.3c-0.5-4.5,0.3-9.1,2.5-12.7l3.3,1.8c-3.6,6-2.6,14.9,2.2,19.8
						c3.5,3.5,8.2,4.2,13.5,1.9c7.7-3.4,16.5-6.9,23-3.8c3.6,1.6,5.9,5,7,10L49.8,91.1z"/>
				</g>
			</g>
			<g>
				<polygon class="st0" points="53.8,91.5 49.5,91.5 50.1,88.1 51,86.9 				"/>
			</g>
		</g>
		<path class="st0" d="M62.4,17.7C52.7,14.1,52,3.5,52,2v0.1c0,1.4-0.2,11.9-9.9,15.5c-10.3,3.8-6.6,12.8,0.3,13.3v10.6
			c0,0-0.1,0-0.1-0.1c9.5-4.4,18.7-0.6,20-0.1c0.1,0.1,0,0.1,0,0.1V30.9C69.2,30.4,72.8,21.5,62.4,17.7z"/>
	</g>
	<g>
		<g>
			<path class="st0" d="M159.8,147.1h-15v-56h-13v56h-14.9V44.6h14.9v33.9h13V44.6h15V147.1z"/>
			<path class="st0" d="M197.6,147.1v-22.8H185v22.8h-14.5V64.9c0-4.8,0.3-8.5,0.8-11.4c0.6-2.8,1.6-5,3.2-6.5
				c1.6-1.5,3.7-2.5,6.4-3c2.7-0.5,6.2-0.7,10.4-0.7c4.2,0,7.7,0.3,10.4,0.8c2.7,0.5,4.9,1.6,6.5,3.1c1.6,1.6,2.7,3.7,3.3,6.6
				c0.6,2.8,0.9,6.5,0.9,11.1v82.2L197.6,147.1L197.6,147.1z M191.2,56.7c-1.3,0-2.4,0.1-3.2,0.3c-0.8,0.2-1.5,0.6-1.9,1.2
				c-0.5,0.6-0.8,1.4-0.9,2.5s-0.2,2.5-0.2,4.2v47.2h12.6V64.9c0-1.7-0.1-3.1-0.3-4.2c-0.2-1.1-0.5-1.9-0.9-2.5s-1.1-1-1.9-1.2
				C193.6,56.8,192.5,56.7,191.2,56.7z"/>
			<path class="st0" d="M249.7,88.1V64.9c0-1.7-0.1-3.1-0.2-4.2c-0.1-1.1-0.4-1.9-0.9-2.5s-1.1-1-1.9-1.2s-1.9-0.3-3.2-0.3
				c-1.4,0-2.5,0.1-3.3,0.3s-1.5,0.6-1.9,1.2c-0.5,0.6-0.8,1.4-0.9,2.5s-0.2,2.4-0.2,4.1v61.9c0,1.8,0.1,3.3,0.2,4.3
				c0.1,1.1,0.4,1.9,0.9,2.5s1.1,1,1.9,1.2s1.9,0.3,3.3,0.3c1.3,0,2.4-0.1,3.2-0.3c0.8-0.2,1.5-0.6,1.9-1.2c0.5-0.6,0.8-1.4,0.9-2.5
				s0.2-2.5,0.2-4.3V103h14.4v23.7c0,4.8-0.3,8.6-0.8,11.4c-0.6,2.9-1.6,5-3.2,6.6c-1.6,1.5-3.7,2.5-6.4,3
				c-2.7,0.5-6.1,0.7-10.2,0.7c-4.4,0-8-0.2-10.8-0.7s-4.9-1.5-6.5-3s-2.6-3.7-3.2-6.6c-0.6-2.9-0.8-6.7-0.8-11.4V64.8
				c0-4.7,0.3-8.4,0.9-11.3c0.6-2.9,1.7-5,3.3-6.6c1.6-1.5,3.8-2.5,6.6-3c2.8-0.5,6.3-0.7,10.5-0.7s7.6,0.2,10.2,0.7
				c2.7,0.5,4.8,1.5,6.4,3s2.6,3.7,3.2,6.5s0.8,6.6,0.8,11.4V88h-14.4V88.1z"/>
			<path class="st0" d="M318.5,44.6l-15.3,42.6l17.4,59.9h-16.2l-14.2-53.8h-0.6v53.8h-15V44.8h15v38.7h0.6l12.6-38.8L318.5,44.6
				L318.5,44.6z"/>
		</g>
		<g>
			<path class="st0" d="M131.8,262.6h-14.9V160.2h21.3c4.4,0,8,0.2,10.8,0.7s4.9,1.5,6.6,3c1.6,1.5,2.7,3.6,3.2,6.4
				c0.6,2.7,0.8,6.3,0.8,10.8v10.8c0,2.7-0.3,4.9-0.8,6.6c-0.6,1.7-1.3,3-2.2,4.1c-0.9,1-1.9,1.8-3,2.3s-2.1,0.8-3.2,1.1v0.5
				c1.4,0.3,2.6,0.8,3.8,1.4c1.1,0.6,2.1,1.4,2.9,2.6c0.8,1.2,1.4,2.7,1.9,4.5c0.4,1.8,0.6,4.2,0.6,7v40.9h-15v-43.2
				c0-2.8-0.3-4.7-1-5.8c-0.7-1.1-2.3-1.6-4.9-1.6H132v50.3L131.8,262.6L131.8,262.6z M131.8,200.2h6.7c2.4,0,4-0.5,4.8-1.4
				c0.8-1,1.2-2.7,1.2-5.2V181c0-1.6-0.1-3-0.2-4c-0.1-1-0.4-1.8-0.8-2.4c-0.4-0.6-1.1-1-1.9-1.2c-0.9-0.2-2-0.3-3.4-0.3h-6.4
				L131.8,200.2L131.8,200.2z"/>
			<path class="st0" d="M185.4,262.6h-14.9V160.2h14.9V262.6z"/>
			<path class="st0" d="M239.9,241.6c0,4.6-0.3,8.3-0.8,11c-0.6,2.8-1.6,4.9-3.2,6.4s-3.8,2.4-6.6,2.9c-2.8,0.5-6.4,0.7-10.8,0.7
				h-21.3V160.2h21.3c4.4,0,8,0.2,10.8,0.7s4.9,1.4,6.6,2.9c1.6,1.5,2.7,3.6,3.2,6.3c0.6,2.7,0.8,6.4,0.8,11L239.9,241.6
				L239.9,241.6z M224.8,181c0-1.6-0.1-3-0.3-4c-0.2-1-0.5-1.9-0.9-2.5s-1.1-1-1.9-1.2s-1.9-0.3-3.3-0.3H212v76.7h6.4
				c1.4,0,2.5-0.1,3.3-0.3c0.8-0.2,1.4-0.6,1.9-1.2c0.4-0.6,0.7-1.4,0.9-2.5c0.2-1.1,0.3-2.5,0.3-4.2V181z"/>
			<path class="st0" d="M276.7,189.7v-9.3c0-1.7-0.1-3.1-0.2-4.2s-0.4-1.9-0.9-2.5s-1.1-1-1.9-1.2s-1.9-0.3-3.2-0.3
				c-1.4,0-2.5,0.1-3.3,0.3s-1.5,0.6-1.9,1.2c-0.5,0.6-0.8,1.4-0.9,2.5s-0.2,2.4-0.2,4.1v61.9c0,1.7,0.1,3.1,0.2,4.2
				s0.4,1.9,0.9,2.5s1.1,1,1.9,1.3s1.9,0.4,3.3,0.4c1.7,0,3.1,0,4.2-0.1s1.9-0.2,2.4-0.4V203h14v59.5c-1.2,0.3-3.5,0.5-6.9,0.8
				s-8,0.5-13.7,0.5c-4.4,0-8-0.3-10.8-0.8c-2.8-0.6-4.9-1.6-6.5-3.2s-2.6-3.8-3.2-6.6c-0.6-2.8-0.8-6.5-0.8-11v-61.9
				c0-4.7,0.3-8.4,0.9-11.3c0.6-2.9,1.7-5,3.3-6.6c1.6-1.5,3.8-2.5,6.6-3c2.8-0.5,6.3-0.7,10.5-0.7s7.6,0.2,10.2,0.7
				c2.7,0.5,4.8,1.5,6.4,3s2.6,3.7,3.2,6.5s0.8,6.6,0.8,11.3v9.3h-14.4V189.7z"/>
			<path class="st0" d="M331.3,262.6H302V160.2h29.2v12.3h-14.3v14.9h13.9v11.8h-13.9v50.6h14.4V262.6z"/>
		</g>
	</g>
</g>
<path class="st2" d="M31.4,81.6"/>
<rect x="32.8" y="208.6" class="st0" width="39.8" height="10.3"/>
<path class="st0" d="M62.1,228.5H43.7c-4,0-7.3-3.3-7.3-7.3V217c0-4,3.3-7.3,7.3-7.3h18.4c4,0,7.3,3.3,7.3,7.3v4.2
	C69.3,225.2,66.1,228.5,62.1,228.5z"/>
<path class="st3" d="M-84.9,51.2"/>
<path class="st3" d="M-152.8,164.5"/>
<path class="st3" d="M151.7,346"/>
<path class="st3" d="M452.2,164.5"/>
<path class="st4" d="M151.7-13"/>
<path class="st4" d="M48.6,81"/>
<path class="st5" d="M-35.3,49"/>
<g>
	<path class="st0" d="M46.4,153.3c-5.4-1.6-10.2-5.3-13.2-10.6c-5.8-10.7-1.8-24.2,8.9-30c1.1-0.6,2.4-0.2,3,0.9s0.2,2.4-0.9,3
		c-8.6,4.7-11.8,15.4-7.1,24c4.7,8.6,15.4,11.8,24,7.1c8.6-4.7,11.8-15.4,7.1-24c-0.6-1.1-0.2-2.4,0.9-3c1.1-0.6,2.4-0.2,3,0.9
		c5.8,10.7,1.8,24.2-8.9,30C57.9,154.4,51.9,154.9,46.4,153.3z"/>
	<path class="st0" d="M55.5,130.6c-0.3,1.2-1.6,1.8-2.7,1.5l0,0c-1.2-0.3-1.8-1.6-1.5-2.7l6.3-21.2c0.3-1.2,1.6-1.8,2.7-1.5l0,0
		c1.2,0.3,1.8,1.6,1.5,2.7L55.5,130.6z"/>
</g>
</svg>
