<?xml version="1.0" encoding="utf-8"?>
<!-- Generator: Adobe Illustrator 14.0.0, SVG Export Plug-In . SVG Version: 6.00 Build 43363)  -->
<!DOCTYPE svg PUBLIC "-//W3C//DTD SVG 1.1//EN" "http://www.w3.org/Graphics/SVG/1.1/DTD/svg11.dtd">
<svg version="1.1" id="Layer_1" xmlns="http://www.w3.org/2000/svg" xmlns:xlink="http://www.w3.org/1999/xlink" x="0px" y="0px"
	 width="614.5px" height="120px" viewBox="0 0 614.5 120" enable-background="new 0 0 614.5 120" xml:space="preserve">
<g>
	<g>
		<path fill="#222222" d="M56.737,51.061v35.023c0,3.08-2.591,5.549-5.674,5.549c-3.082,0-5.55-2.469-5.55-5.549V52.291
			c0-9.371-3.946-15.047-13.565-15.047c-8.879,0-15.292,5.676-20.226,11.842v36.998c0,3.08-2.59,5.549-5.673,5.549
			S0.5,89.164,0.5,86.084V33.176c0-3.203,2.467-5.672,5.55-5.672s5.673,2.469,5.673,5.672v5.059
			c5.18-5.676,11.963-11.348,22.939-11.348C48.721,26.887,56.737,37.861,56.737,51.061z"/>
		<path fill="#222222" d="M124.069,82.26c0,1.975-1.48,3.576-3.207,4.562c-5.426,3.084-10.853,5.428-21.582,5.428
			c-20.103,0-31.941-11.961-31.941-32.682c0-16.648,9.003-32.682,29.475-32.682c18.992,0,29.352,14.676,29.352,31.08
			c0,3.084-2.22,5.548-5.673,5.548H78.685c1.233,11.101,8.263,18.252,21.582,18.252c7.4,0,12.087-1.478,16.648-3.82
			c0.74-0.37,1.357-0.495,2.221-0.495C121.726,77.449,124.069,79.424,124.069,82.26z M78.685,54.389h36.381
			c-0.74-12.826-10.359-18.004-18.252-18.004S79.425,41.562,78.685,54.389z"/>
		<path fill="#222222" d="M235.135,85.713c0,2.098-1.11,3.451-2.836,4.318c-2.96,1.357-6.29,2.219-10.237,2.219
			c-5.796,0-18.006-0.986-18.006-16.279V37.738H195.3c-1.355,0-2.343-0.984-2.343-2.344c0-0.736,0.37-1.479,1.11-2.094
			l16.772-16.404c0.371-0.367,1.109-1.109,2.098-1.109c1.354,0,2.342,1.109,2.342,2.469v9.865h13.936c2.714,0,4.81,2.094,4.81,4.811
			c0,2.711-2.096,4.807-4.81,4.807h-13.936v37.246c0,7.275,4.934,7.398,8.018,7.398c3.945,0,5.303-1.109,7.398-1.109
			C232.916,81.273,235.135,83.125,235.135,85.713z"/>
		<path fill="#222222" d="M293.834,82.014c0,1.848-0.988,3.33-2.467,4.316c-4.193,2.715-10.359,5.92-20.102,5.92
			c-17.512,0-32.929-12.086-32.929-32.682c0-20.598,15.417-32.682,32.929-32.682c9.742,0,15.908,3.205,20.102,5.92
			c1.479,0.986,2.467,2.469,2.467,4.314c0,2.344-2.098,4.936-4.687,4.936c-0.987,0-1.604-0.125-2.714-0.742
			c-4.316-2.219-7.77-3.945-14.182-3.945c-14.307,0-22.692,9.004-22.692,22.199c0,13.194,8.386,22.198,22.692,22.198
			c6.412,0,9.865-1.728,14.182-3.942c1.11-0.617,1.727-0.742,2.714-0.742C291.736,77.08,293.834,79.672,293.834,82.014z"/>
		<path fill="#222222" d="M354.259,51.182v34.902c0,3.08-2.588,5.549-5.673,5.549c-3.083,0-5.549-2.469-5.549-5.549v-3.207
			c-4.439,4.561-11.594,9.373-23.188,9.373c-10.729,0-20.103-6.906-20.103-18.498c0-11.594,9.128-19.98,28.364-19.98h14.924v-0.984
			c0-10.979-5.426-15.293-16.523-15.293c-6.908,0-11.842,1.477-16.402,2.961c-0.494,0.123-1.109,0.242-1.604,0.242
			c-2.466,0-4.563-1.969-4.563-4.686c0-2.096,1.111-3.822,3.209-4.686c5.795-2.465,12.576-4.439,21.333-4.439
			C346.49,26.887,354.259,39.096,354.259,51.182z M343.037,73.135V62.775h-13.441c-11.596,0-18.625,2.713-18.625,9.742
			c0,5.305,3.086,9.863,13.074,9.863C331.691,82.383,338.843,77.945,343.037,73.135z"/>
		<path fill="#222222" d="M378.305,82.877v31.447c0,3.207-2.468,5.676-5.673,5.676c-3.085,0-5.551-2.469-5.551-5.676V33.053
			c0-3.08,2.466-5.549,5.551-5.549c3.205,0,5.673,2.469,5.673,5.549v3.207c5.672-5.92,12.457-9.373,21.089-9.373
			c14.922,0,29.847,11.717,29.847,32.682c0,20.965-14.928,32.681-29.847,32.681C390.762,92.25,383.977,88.795,378.305,82.877z
			 M378.305,46.617v25.9c4.812,5.305,11.467,9.248,19.486,9.248c11.716,0,20.224-7.646,20.224-22.199
			c0-14.552-8.508-22.199-20.224-22.199C389.771,37.369,383.114,41.314,378.305,46.617z"/>
		<path fill="#222222" d="M451.553,9.006c0,3.453-2.835,6.289-6.288,6.289c-0.124,0-0.248,0-0.739,0
			c-3.453,0-6.288-2.836-6.288-6.289c0-0.125,0-0.125,0-0.496c0-3.453,2.835-6.289,6.288-6.289c0.248,0,0.491,0,0.739,0
			c3.453,0,6.288,2.836,6.288,6.289C451.553,8.633,451.553,8.881,451.553,9.006z M450.444,33.176v52.908
			c0,3.08-2.471,5.549-5.673,5.549c-3.086,0-5.554-2.469-5.554-5.549V33.176c0-3.203,2.468-5.672,5.554-5.672
			C447.976,27.504,450.444,29.973,450.444,33.176z"/>
		<path fill="#222222" d="M500.633,85.713c0,2.098-1.107,3.451-2.836,4.318c-2.96,1.357-6.288,2.219-10.231,2.219
			c-5.799,0-18.008-0.986-18.008-16.279V37.738h-8.756c-1.355,0-2.344-0.984-2.344-2.344c0-0.736,0.369-1.479,1.11-2.094
			l16.771-16.404c0.369-0.367,1.11-1.109,2.096-1.109c1.357,0,2.346,1.109,2.346,2.469v9.865h13.938
			c2.711,0,4.809,2.094,4.809,4.811c0,2.711-2.098,4.807-4.809,4.807H480.78v37.246c0,7.275,4.935,7.398,8.018,7.398
			c3.946,0,5.304-1.109,7.398-1.109C498.414,81.273,500.633,83.125,500.633,85.713z"/>
		<path fill="#222222" d="M558.594,51.182v34.902c0,3.08-2.589,5.549-5.673,5.549s-5.548-2.469-5.548-5.549v-3.207
			c-4.441,4.561-11.591,9.373-23.188,9.373c-10.729,0-20.103-6.906-20.103-18.498c0-11.594,9.125-19.98,28.364-19.98h14.924v-0.984
			c0-10.979-5.428-15.293-16.526-15.293c-6.904,0-11.84,1.477-16.4,2.961c-0.493,0.123-1.11,0.242-1.604,0.242
			c-2.468,0-4.562-1.969-4.562-4.686c0-2.096,1.108-3.822,3.204-4.686c5.797-2.465,12.582-4.439,21.338-4.439
			C550.826,26.887,558.594,39.096,558.594,51.182z M547.373,73.135V62.775h-13.441c-11.593,0-18.623,2.713-18.623,9.742
			c0,5.305,3.08,9.863,13.071,9.863C536.025,82.383,543.179,77.945,547.373,73.135z"/>
		<path fill="#222222" d="M583.623,6.047v80.037c0,3.08-2.467,5.549-5.671,5.549c-3.084,0-5.552-2.469-5.552-5.549V6.047
			c0-3.209,2.468-5.676,5.552-5.676C581.156,0.371,583.623,2.838,583.623,6.047z"/>
	</g>
	<g>
		<path fill="#00A5F6" d="M167.834,59.486c0-0.541-0.193-1.031-0.505-1.424l-31.956-40.104h-0.002
			c-1.03-1.41-2.814-2.297-4.722-2.297c-1.595-0.002-3.006,0.605-4.015,1.615c-1.011,1.008-1.618,2.422-1.618,4.016
			c-0.003,1.393,0.386,2.557,1.15,3.574l0.004,0.004l27.902,34.648l-28.149,34.895l-0.002,0.004
			c-0.771,1.024-1.151,2.304-1.151,3.576c0.004,2.95,2.432,5.381,5.384,5.381c1.918,0.006,3.347-0.903,4.476-2.291l0.003-0.004
			l32.693-40.166C167.64,60.52,167.834,60.027,167.834,59.486z"/>
		<path fill="#00A5F6" d="M172.718,64.822l-7.211,8.936l12.58,15.635c0.985,1.357,2.589,2.223,4.314,2.223
			c3.824,0,5.673-2.836,5.673-5.676c0-0.986-0.37-2.465-1.355-3.574L172.718,64.822z"/>
		<path fill="#00A5F6" d="M186.966,36.244c0.738-0.984,1.231-2.217,1.231-3.453c0-2.959-2.342-5.303-5.673-5.303
			c-1.726,0-3.329,0.742-4.315,2.098L165.673,45.15l7.147,8.912L186.966,36.244z"/>
	</g>
</g>
<g>
	<path fill="#999999" d="M596.464,83.518V82.1h7.242v1.418h-2.777v7.078h-1.688v-7.078H596.464z M607.576,82.1l2.171,6.082
		l2.185-6.082h2.415v8.496h-1.559V83.74l-2.352,6.855h-1.358l-2.372-6.855v6.855h-1.56V82.1H607.576z"/>
</g>
</svg>
